<svg version="1.1" viewBox="0 -256 1850 1850" xmlns="http://www.w3.org/2000/svg">
 <g transform="matrix(1,0,0,-1,91.118644,1297.8644)">
  <path d="m128-128h288v288h-288v-288zm352 0h320v288h-320v-288zm-352 352h288v320h-288v-320zm352 0h320v320h-320v-320zm-352 384h288v288h-288v-288zm736-736h320v288h-320v-288zm-384 736h320v288h-320v-288zm768-736h288v288h-288v-288zm-384 352h320v320h-320v-320zm-352 864v288q0 13-9.5 22.5t-22.5 9.5h-64q-13 0-22.5-9.5t-9.5-22.5v-288q0-13 9.5-22.5t22.5-9.5h64q13 0 22.5 9.5t9.5 22.5zm736-864h288v320h-288v-320zm-384 384h320v288h-320v-288zm384 0h288v288h-288v-288zm32 480v288q0 13-9.5 22.5t-22.5 9.5h-64q-13 0-22.5-9.5t-9.5-22.5v-288q0-13 9.5-22.5t22.5-9.5h64q13 0 22.5 9.5t9.5 22.5zm384 64v-1280q0-52-38-90t-90-38h-1408q-52 0-90 38t-38 90v1280q0 52 38 90t90 38h128v96q0 66 47 113t113 47h64q66 0 113-47t47-113v-96h384v96q0 66 47 113t113 47h64q66 0 113-47t47-113v-96h128q52 0 90-38t38-90z" fill="currentColor"/>
 </g>
</svg>
