<!DOCTYPE svg  PUBLIC '-//W3C//DTD SVG 1.1//EN'  'http://www.w3.org/Graphics/SVG/1.1/DTD/svg11.dtd'>
<svg enable-background="new 0 0 606.817 606.816" version="1.1" viewBox="0 0 606.817 606.816" xml:space="preserve" xmlns="http://www.w3.org/2000/svg">

	
		
			<path d="m477.883 79.917h-50.825c-11.908-7.781-24.873-13.455-36.856-17.557-5.596-14.695-14.538-27.92-26.047-38.28-16.892-15.206-38.465-23.58-60.746-23.58s-43.854 8.374-60.747 23.581c-11.509 10.36-20.452 23.586-26.047 38.28-11.983 4.102-24.948 9.775-36.857 17.557h-50.825c-32.059 0-58.14 26.082-58.14 58.14v410.119c0 32.059 26.082 58.141 58.14 58.141h348.95c32.059 0 58.14-26.082 58.14-58.141v-410.12c0-32.058-26.081-58.14-58.14-58.14zm-224.007 7.443c0.491-2.551 1.149-5.034 1.947-7.442 7.067-21.335 25.699-36.578 47.585-36.578s40.518 15.243 47.585 36.578c0.798 2.409 1.456 4.891 1.947 7.442 1.118 5.81 5.573 10.378 11.295 11.885 20.768 5.473 37.698 13.664 48.5 23.512 1.703 1.553 3.259 3.146 4.648 4.777 6.851 8.046 1.201 20.417-9.368 20.417h-209.214c-10.568 0-16.219-12.37-9.367-20.417 1.389-1.632 2.945-3.224 4.648-4.777 10.801-9.849 27.732-18.04 48.5-23.512 5.722-1.508 10.177-6.076 11.294-11.885zm239.307 460.816c0 8.451-6.85 15.301-15.3 15.301h-348.949c-8.45 0-15.3-6.85-15.3-15.301v-410.119c0-8.45 6.85-15.3 15.3-15.3h16.175c-0.507 2.123-0.895 4.28-1.147 6.468-1.164 10.077 0.479 20.292 4.75 29.538 4.262 9.227 10.955 17.082 19.355 22.717 9.08 6.092 19.708 9.311 30.735 9.311h209.214c11.028 0 21.656-3.22 30.735-9.311 8.4-5.635 15.094-13.491 19.355-22.717 4.271-9.246 5.914-19.46 4.75-29.538-0.253-2.188-0.641-4.345-1.147-6.468h16.175c8.45 0 15.3 6.85 15.3 15.3l-1e-3 410.119z"/>
			<path d="m477.883 606.816h-348.95c-32.334 0-58.64-26.306-58.64-58.641v-410.118c0-32.334 26.306-58.64 58.64-58.64h50.676c10.491-6.838 22.81-12.709 36.622-17.454 5.657-14.751 14.677-27.976 26.096-38.255 16.985-15.288 38.677-23.708 61.082-23.708s44.098 8.42 61.081 23.709c11.419 10.279 20.439 23.504 26.096 38.255 13.812 4.745 26.132 10.616 36.621 17.454h50.677c32.334 0 58.64 26.306 58.64 58.64v410.119c-1e-3 32.334-26.307 58.639-58.641 58.639zm-348.949-526.399c-31.783 0-57.64 25.857-57.64 57.64v410.119c0 31.783 25.857 57.641 57.64 57.641h348.95c31.782 0 57.64-25.857 57.64-57.641v-410.119c0-31.783-25.857-57.64-57.64-57.64h-50.974l-0.125-0.082c-10.503-6.863-22.866-12.751-36.745-17.502l-0.222-0.076-0.083-0.219c-5.595-14.691-14.556-27.862-25.915-38.086-16.799-15.123-38.253-23.452-60.411-23.452-22.157 0-43.612 8.329-60.412 23.452-11.358 10.224-20.319 23.395-25.914 38.086l-0.083 0.219-0.222 0.076c-13.878 4.75-26.241 10.639-36.746 17.502l-0.125 0.082h-50.973zm348.949 483.56h-348.949c-8.712 0-15.8-7.088-15.8-15.801v-410.119c0-8.712 7.088-15.8 15.8-15.8h16.809l-0.147 0.616c-0.51 2.135-0.892 4.291-1.137 6.409-1.153 9.985 0.474 20.107 4.707 29.27 4.224 9.144 10.856 16.928 19.18 22.512 8.997 6.036 19.528 9.226 30.457 9.226h209.214c10.929 0 21.46-3.19 30.457-9.226 8.324-5.584 14.957-13.369 19.18-22.512 4.233-9.163 5.861-19.284 4.707-29.27-0.245-2.119-0.627-4.275-1.137-6.409l-0.147-0.616h16.809c8.712 0 15.8 7.088 15.8 15.8v410.119c-3e-3 8.713-7.091 15.801-15.803 15.801zm-348.949-440.72c-8.161 0-14.8 6.639-14.8 14.8v410.119c0 8.161 6.639 14.801 14.8 14.801h348.949c8.161 0 14.8-6.64 14.8-14.801l1e-3 -410.119c0-8.161-6.64-14.8-14.8-14.8h-15.545c0.447 1.971 0.788 3.956 1.015 5.91 1.174 10.169-0.483 20.475-4.793 29.805-4.3 9.31-11.054 17.236-19.531 22.923-9.161 6.147-19.886 9.396-31.014 9.396h-209.214c-11.127 0-21.852-3.249-31.013-9.396-8.477-5.686-15.23-13.613-19.531-22.923-4.31-9.33-5.967-19.636-4.792-29.804 0.226-1.954 0.566-3.939 1.014-5.911h-15.546zm279.082 25.194h-209.215c-5.067 0-9.532-2.853-11.653-7.444-2.135-4.623-1.405-9.909 1.905-13.796 1.375-1.615 2.954-3.237 4.692-4.822 10.89-9.929 27.733-18.099 48.71-23.626 5.58-1.471 9.87-5.983 10.93-11.496 0.481-2.5 1.142-5.025 1.964-7.505 7.315-22.083 26.629-36.92 48.06-36.92s40.744 14.837 48.06 36.92c0.822 2.481 1.482 5.006 1.964 7.505 1.061 5.514 5.352 10.027 10.931 11.497 20.978 5.528 37.821 13.698 48.71 23.626 1.736 1.583 3.315 3.206 4.692 4.822 3.31 3.888 4.04 9.174 1.904 13.797-2.122 4.589-6.587 7.442-11.654 7.442zm-104.607-104.611c-20.999 0-39.931 14.562-47.11 36.235-0.809 2.439-1.458 4.922-1.931 7.38-1.133 5.888-5.709 10.706-11.658 12.274-20.821 5.486-37.52 13.577-48.291 23.398-1.708 1.557-3.256 3.148-4.604 4.731-3.055 3.587-3.729 8.464-1.759 12.729 1.956 4.234 6.073 6.864 10.745 6.864h209.215c4.673 0 8.79-2.63 10.745-6.863 1.971-4.264 1.297-9.142-1.758-12.729-1.35-1.585-2.898-3.177-4.604-4.731-10.771-9.82-27.469-17.911-48.29-23.398-5.949-1.567-10.525-6.385-11.659-12.274-0.473-2.457-1.122-4.939-1.931-7.38-7.18-21.675-26.111-36.236-47.11-36.236z"/>
		
		
			<path d="m303.409 109.265c11.941 0 21.622-9.68 21.622-21.622 0-2.723-0.509-5.326-1.428-7.726-3.109-8.125-10.977-13.896-20.194-13.896s-17.084 5.771-20.195 13.896c-0.918 2.399-1.427 5.003-1.427 7.726 0 11.942 9.68 21.622 21.622 21.622z"/>
			<path d="m303.409 109.765c-12.198 0-22.122-9.924-22.122-22.122 0-2.713 0.491-5.373 1.46-7.904 3.255-8.504 11.559-14.217 20.662-14.217 9.104 0 17.407 5.713 20.661 14.217 0.97 2.531 1.461 5.19 1.461 7.904 0 12.198-9.924 22.122-22.122 22.122zm0-43.244c-8.691 0-16.62 5.455-19.728 13.575-0.925 2.417-1.394 4.956-1.394 7.547 0 11.647 9.475 21.122 21.122 21.122 11.646 0 21.122-9.475 21.122-21.122 0-2.591-0.469-5.13-1.395-7.547-3.107-8.119-11.035-13.575-19.727-13.575z"/>
		
	
















</svg>
