<!DOCTYPE svg  PUBLIC '-//W3C//DTD SVG 1.1//EN'  'http://www.w3.org/Graphics/SVG/1.1/DTD/svg11.dtd'>
<svg enable-background="new 0 0 305 305" version="1.1" viewBox="0 0 305 305" xml:space="preserve" xmlns="http://www.w3.org/2000/svg">
<g fill="#222220">
	<path d="m305 173.726c0-41.662-16.799-79.469-43.972-107.02-0.212-0.282-0.438-0.558-0.695-0.815s-0.532-0.483-0.814-0.694c-27.551-27.173-65.358-43.971-107.019-43.971s-79.468 16.799-107.02 43.971c-0.282 0.212-0.557 0.438-0.814 0.694-0.257 0.257-0.483 0.532-0.695 0.815-27.172 27.551-43.971 65.358-43.971 107.02 0 40.729 15.859 79.018 44.655 107.821 4e-3 4e-3 8e-3 9e-3 0.012 0.013 3e-3 2e-3 5e-3 5e-3 8e-3 7e-3l0.012 0.012c1.464 1.464 3.383 2.195 5.302 2.195 1.92 0 3.84-0.732 5.304-2.197 0.125-0.125 0.238-0.258 0.352-0.39l23.112-23.113c2.929-2.93 2.929-7.678 0-10.607-2.929-2.928-7.678-2.928-10.606 0l-18.036 18.036c-21.031-23.403-33.232-52.857-34.91-84.277h25.507c4.142 0 7.5-3.357 7.5-7.5s-3.358-7.5-7.5-7.5h-25.505c1.744-32.272 14.668-61.618 34.957-84.229l17.987 17.987c1.464 1.464 3.384 2.196 5.303 2.196s3.839-0.732 5.303-2.196c2.929-2.93 2.929-7.678 0-10.607l-17.986-17.988c22.612-20.289 51.957-33.213 84.229-34.956v25.506c0 4.143 3.358 7.5 7.5 7.5s7.5-3.357 7.5-7.5v-25.506c32.272 1.743 61.617 14.668 84.229 34.957l-17.987 17.987c-2.929 2.93-2.929 7.678 0 10.607 1.464 1.464 3.384 2.196 5.303 2.196s3.839-0.732 5.303-2.196l17.987-17.987c20.289 22.612 33.214 51.957 34.957 84.229h-25.506c-4.142 0-7.5 3.357-7.5 7.5s3.358 7.5 7.5 7.5h25.507c-1.678 31.42-13.878 60.875-34.909 84.278l-18.036-18.037c-2.928-2.928-7.677-2.928-10.606 0-2.929 2.93-2.929 7.678 0 10.607l23.485 23.485c1.464 1.464 3.384 2.196 5.303 2.196 0.959 0 1.919-0.183 2.822-0.549s1.749-0.915 2.482-1.647c28.803-28.804 44.666-67.1 44.666-107.833z"/>
	<path d="m186.956 87.718c-3.847-1.541-8.211 0.327-9.751 4.173l-21.673 54.1c-1.01-0.108-2.02-0.182-3.031-0.182-10.556 0-20.091 5.847-24.886 15.259-5.012 9.839-3.728 21.595 3.432 31.445 0.732 1.007 1.652 1.928 2.666 2.665 5.817 4.229 12.314 6.464 18.788 6.464 10.556 0 20.092-5.847 24.886-15.259 5.012-9.839 3.728-21.594-3.427-31.437-0.732-1.01-1.654-1.934-2.671-2.674-0.547-0.398-1.106-0.761-1.665-1.123l21.505-53.681c1.54-3.844-0.328-8.21-4.173-9.75zm-22.936 91.856c-2.221 4.359-6.635 7.067-11.52 7.067-3.204 0-6.429-1.119-9.589-3.327-3.6-5.169-4.307-10.773-1.93-15.438 2.22-4.359 6.634-7.067 11.52-7.067 1.558 0 3.12 0.27 4.678 0.795 0.051 0.021 0.098 0.048 0.15 0.069 0.164 0.065 0.329 0.118 0.494 0.171 1.43 0.549 2.854 1.305 4.266 2.291 3.599 5.169 4.307 10.774 1.931 15.439z"/>
</g>















</svg>
