<svg width="40.43222mm" height="40.352398mm" version="1.1" viewBox="0 0 40.43222 40.352398" xmlns="http://www.w3.org/2000/svg">
 <g transform="translate(-115.28687,14.431111)">
  <path d="m140.46384-11.814698c-1.76389 0.917222-2.29305 1.5875-2.29305 2.8927779 0 1.128889 0.0705 1.1994446 0.98777 0.9877779 1.41111-0.3527778 2.54-1.7991668 2.54-3.2455558 0-0.670278-0.0353-1.199445-0.0705-1.199445-0.0706 0-0.56445 0.246945-1.16417 0.564445z" fill="#41bc3f"/>
  <path d="m124.11199-5.8729356c0 1.1994445 1.09362 2.4694446 2.11667 2.4694446 1.12889 0 0.91723-1.5522223-0.38805-2.6105557-1.37584-1.1994446-1.72862-1.1641668-1.72862 0.1411111z" fill="#0adbcf"/>
  <path d="m128.91889-1.643786c-1.02305 2.7163891-0.74083 4.4097225 0.81139 5.1152781 0.77611 0.3527778 0.98778 0.2822223 1.41111-0.2822222 0.77611-1.0230556 0.635-3.03388909-0.24694-4.3744447-1.05834-1.5522223-1.51695-1.6580557-1.97556-0.4586112z" fill="#2c792b"/>
  <path d="m138.74166-5.4597658c-1.48167 1.446389-1.79917 2.8575002-0.91722 4.0569447 0.45861 0.59972227 0.52917 0.59972227 1.62278 0.070556 1.55222-0.811389 2.29305-3.1044447 1.5875-4.9388892-0.3175-0.8466668-0.81139-0.7055556-2.29306 0.8113885z" fill="#2c792b"/>
  <g fill="#41bc3f">
   <path d="m122.04316-1.5959493c0 1.0583334 1.34056 2.9280557 2.11667 2.9280557 0.56444 0 0.70555-0.2469444 0.70555-1.05833336 0-0.81138894-0.24694-1.2347223-1.12888-1.76388904-1.41112-0.8466667-1.69334-0.8819445-1.69334-0.1058333z"/>
   <path d="m148.31943-6.1618853c-1.55222 0.4233333-2.36361 2.398889-0.9525 2.398889 0.77611 0 2.39889-1.5522223 2.25778-2.1519446-0.10584-0.4233333-0.38806-0.4938889-1.30528-0.2469444z"/>
   <path d="m134.30159-4.3471716c-0.49389 1.1288889-0.42333 1.7991667 0.24695 2.6811112 0.28222 0.3527778 0.49389 0.3175001 0.98777-0.1411111 0.77612-0.7055556 0.84667-1.4816667 0.24695-2.7869446-0.52917-1.1641667-0.91722-1.128889-1.48167 0.2469445z"/>
  </g>
  <path d="m117.35839-0.3099578c0 0.84666672 2.01084 2.7163891 2.71639 2.5752779 1.37583-0.2822222 0.0353-2.50472234-1.72861-2.9280557-0.77611-0.21166668-0.98778-0.14111112-0.98778 0.3527778z" fill="#0adbcf"/>
  <path d="m140.89854 0.48588422c-0.81139 0.56444448-1.69334 1.41111118-2.01084 1.86972238-0.67027 0.9525-0.74083 3.4219446-0.10583 4.2686113 0.38806 0.5644445 0.49389 0.5644445 1.65806 0 2.25777-1.1641667 3.31611-3.7041669 2.61055-6.38527814-0.28222-0.98777784-0.45861-0.98777784-2.15194 0.24694446z" fill="#41bc3f"/>
  <path d="m132.92576 1.4736621c-1.34056 3.1044446-1.02306 5.291667 0.98778 6.5969448 1.05833 0.7055556 1.37583 0.5644445 2.15194-0.9172223 0.81139-1.5875001 0.49389-3.8805558-0.81139-5.5033336-0.56444-0.67027786-1.19944-1.3052779-1.37583-1.37583346-0.21167-0.0705556-0.635 0.45861114-0.9525 1.19944456z" fill="#2c792b"/>
  <path d="m150.81847 1.0912862c-0.49389 0.1411111-1.05833 0.635-1.30528 1.0936112-0.42333 0.8113889-0.38805 0.8819445 0.49389 0.9877778 0.70556 0.1058334 1.19944-0.1411111 1.76389-0.8113889 1.30528-1.48166678 1.05833-1.83444458-0.9525-1.2700001z" fill="#41bc3f"/>
  <g fill="#2c792b">
   <path d="m125.32429 3.3964492c0 0.8466668 1.05834 2.7869447 1.79917 3.3161114 1.02306 0.7055556 2.43417 0.7408333 2.43417 0.070556 0-1.1288889-0.74084-2.3636112-1.83445-3.0338891-1.27-0.7761111-2.39889-0.9172222-2.39889-0.3527783z"/>
   <path d="m146.64314 2.9158671c-1.55223 0.6702778-2.57528 1.7991668-2.57528 2.8222224 0 1.128889 0.77611 1.446389 2.08139 0.8819445 1.23472-0.4938889 1.905-1.6580557 1.72861-3.0691669-0.10584-1.0936111-0.10584-1.0936111-1.23472-0.635z"/>
   <path d="m118.03854 3.6961622c-0.3175 0.5291667 0.98777 1.9402779 2.32833 2.5047224 0.81139 0.3175 1.27 0.3175 1.905 0.035278 1.05833-0.493889 1.09361-0.811389 0.24694-1.8344446-0.74083-0.9172223-4.02166-1.446389-4.48027-0.7055558z"/>
   <path d="m150.74104 4.2958845c-0.24695 0.1058333-0.67028 0.5997222-0.9525 1.1641667-0.59972 1.1641667-0.28222 1.4111112 1.76389 1.4111112 1.16416 0 3.35139-1.5875001 3.35139-2.4341668 0-0.3880556-3.24556-0.4938889-4.16278-0.1411111z"/>
  </g>
  <g fill="#41bc3f">
   <path d="m116.13354 7.3650513-0.84667 0.4586112 0.84667 0.5997222c1.02305 0.7055556 2.89277 0.7408334 3.45722 0.070556 0.35278-0.3880556 0.24694-0.5997223-0.38806-1.0583334-0.9525-0.6702778-1.94028-0.7055556-3.06916-0.070556z"/>
   <path d="m123.68298 7.894218c-0.59972 0.9877779 2.39889 3.033889 3.88056 2.645834 1.05833-0.246945 1.16416-1.199445 0.17639-2.0813895-0.84667-0.7408334-3.66889-1.128889-4.05695-0.5644445z"/>
   <path d="m146.29604 8.9525514c-0.52917 0.5997223-0.56445 0.811389-0.21167 1.2700006 0.635 0.740833 2.92806 0.670277 3.91583-0.141112 1.09362-0.8819441 0.56445-1.4463886-1.51694-1.6933331-1.23472-0.1411111-1.65806-0.035278-2.18722 0.5644445z"/>
  </g>
  <path d="m152.2227 9.1289403c-0.635 0.4938889-0.635 0.5644445-0.0705 1.1288887 0.38805 0.388056 1.09361 0.635 1.905 0.599723 1.79917-0.07056 2.15194-0.564445 0.98778-1.4816672-1.09361-0.8819445-1.86973-0.9172223-2.82223-0.2469445z" fill="#41bc3f"/>
  <g fill="#2c792b">
   <path d="m117.43881 11.421996-1.16416 1.023056 1.55222 0.423333c1.79917 0.493889 2.96333 0.246944 3.98639-0.776111 0.70555-0.705556 0.70555-0.776111 0.10583-1.234722-1.16417-0.811389-3.21028-0.564445-4.48028 0.564444z"/>
   <path d="m141.28659 12.198107c-0.67027 0.740834-0.635 0.740834 0.17639 1.411111 1.05834 0.846667 2.39889 0.846667 3.84528-0.03528 0.59972-0.388056 1.12889-0.776112 1.12889-0.881945 0-0.07055-0.45861-0.388055-1.05833-0.705555-1.48167-0.776112-3.28084-0.670278-4.09223 0.211666z"/>
   <path d="m127.03437 12.409774c-1.83444 1.234722-1.83444 1.728611 0.0353 2.046111 1.69333 0.282222 3.38666-0.3175 3.70416-1.305278 0.42334-1.375833-2.11666-1.869722-3.73944-0.740833z"/>
  </g>
  <g fill="#0adbcf">
   <path d="m146.44548-2.9109815c-1.55222 0.6702779-2.57528 1.7991668-2.57528 2.82222243 0 1.12888897 0.77611 1.44638897 2.08139 0.8819445 1.23472-0.49388892 1.905-1.65805566 1.72861-3.06916683-0.10583-1.0936112-0.10583-1.0936112-1.23472-0.6350001z"/>
   <path d="m152.28357-4.0505737c-2.44108 0.6082489-3.7171 3.44675199-1.49794 3.44675199 1.22055 0 3.77259-2.23025419 3.55067-3.09193869-0.16643-0.6082524-0.61027-0.7096266-2.05273-0.3548133z"/>
   <path d="m145.23467-8.5614094c-1.55222 0.6702778-2.57528 1.7991668-2.57528 2.8222224 0 1.128889 0.77611 1.446389 2.08139 0.8819445 1.23472-0.4938889 1.905-1.6580556 1.72861-3.0691668-0.10583-1.0936112-0.10583-1.0936112-1.23472-0.6350001z"/>
   <path d="m132.92092-13.617668c-1.02305 2.716389-0.74083 4.4097227 0.81139 5.1152783 0.77611 0.3527778 0.98778 0.2822223 1.41111-0.2822222 0.77611-1.0230556 0.635-3.0338891-0.24694-4.3744451-1.05834-1.552222-1.51695-1.658055-1.97556-0.458611z"/>
  </g>
  <path d="m129.54567-5.5824372c0 1.0583334 1.34055 2.9280557 2.11666 2.9280557 0.56445 0 0.70556-0.2469444 0.70556-1.0583334 0-0.8113889-0.24695-1.2347223-1.12889-1.763889-1.41111-0.8466667-1.69333-0.8819445-1.69333-0.1058333z" fill="#41bc3f"/>
  <path d="m149.53053 12.525616c-0.635 0.493888-0.635 0.564444-0.0706 1.128888 0.38806 0.388056 1.09361 0.635001 1.905 0.599723 1.79917-0.07056 2.15195-0.564445 0.98778-1.481667-1.09361-0.881945-1.86972-0.917222-2.82222-0.246944z" fill="#0adbcf"/>
  <path d="m128.22045-9.6665493c0 1.1994445 1.09361 2.4694446 2.11667 2.4694446 1.12889 0 0.91722-1.5522224-0.38805-2.6105558-1.37584-1.1994445-1.72862-1.1641665-1.72862 0.1411112z" fill="#0adbcf"/>
  <path d="m131.76159 10.469496c1.82477 2.075879 2.42161 4.991901 2.34297 7.662821-0.45857 3.157871-0.3768 5.298847-2.03267 6.871537-0.42339 0.402122-0.96039 0.542697-1.64906 0.917432h10.54627l-1.47274-0.893695c-2.04441-1.486795-2.40781-3.445594-2.37254-6.867539 0-2.469446 0.17639-3.35139 0.98778-5.080001 0.49389-1.164167 1.37584-2.681112 1.86973-3.3513891l0.91722-1.199445-1.48167 0.846667c-0.84667 0.458611-2.01083 1.3758331-2.57528 2.0461111l-1.05833 1.199445-1.44639-1.446389c-1.30529-1.2347231-3.31612-2.5400011-3.95112-2.5400011-0.14111 0 0.49389 0.846667 1.37583 1.8344461z" fill="#56412e"/>
 </g>
</svg>
