<svg width="40.457924mm" height="40.655651mm" version="1.1" viewBox="0 0 40.457924 40.655651" xmlns="http://www.w3.org/2000/svg">
 <g transform="translate(-88.641053,-117.83459)">
  <g transform="matrix(.03527778 0 0 -.03527778 64.757996 203.5817)">
   <rect transform="scale(1,-1)" x="679.84113" y="-2430.6267" width="1143.9976" height="1151.5737" fill="#d9f2d9" stroke-width="7.49999905"/>
   <path d="m1390.6779 2349.6779c-50-26-65-45-65-82 0-32 2-34 28-28 40 10 72 51 72 92 0 19-1 34-2 34-2 0-16-7-33-16z" fill="#41bc3f"/>
   <path d="m927.16102 2181.25c0-34 31.00004-70 60.00004-70 32.00004 0 26.00004 44-11 74-39.00004 34-49.00004 33-49.00004-4z" fill="#0adbcf"/>
   <path d="m1063.4195 2061.3686c-29-77-21-125 23-145 22-10 28-8 40 8 22 29 18 86-7 124-30 44-43 47-56 13z" fill="#2c792b"/>
   <path d="m1341.8602 2169.5381c-42-41-51-81-26-115 13-17 15-17 46-2 44 23 65 88 45 140-9 24-23 20-65-23z" fill="#2c792b"/>
   <g fill="#41bc3f">
    <path d="m868.51695 2060.0126c0-30 38-83 59.99997-83 16 0 20 7 20 30s-7 35-31.99995 50c-40.00002 24-48.00002 25-48.00002 3z"/>
    <path d="m1613.356 2189.4407c-44-12-67-68-27-68 22 0 68 44 64 61-3 12-11 14-37 7z"/>
    <path d="m1216 2138c-14-32-12-51 7-76 8-10 14-9 28 4 22 20 24 42 7 79-15 33-26 32-42-7z"/>
   </g>
   <path d="m735.72034 2023.5593c0-24 57-77 77-73 39 8 1 71-49 83-22 6-28 4-28-10z" fill="#0adbcf"/>
   <path d="m1403 2001c-23-16-48-40-57-53-19-27-21-97-3-121 11-16 14-16 47 0 64 33 94 105 74 181-8 28-13 28-61-7z" fill="#41bc3f"/>
   <path d="m1177 1973c-38-88-29-150 28-187 30-20 39-16 61 26 23 45 14 110-23 156-16 19-34 37-39 39-6 2-18-13-27-34z" fill="#2c792b"/>
   <path d="m1684.1949 1983.839c-14-4-30-18-37-31-12-23-11-25 14-28 20-3 34 4 50 23 37 42 30 52-27 36z" fill="#41bc3f"/>
   <g fill="#2c792b">
    <path d="m961.52542 1918.4958c0-24 30-79 50.99998-94 29-20 69-21 69-2 0 32-21 67-52 86-35.99998 22-67.99998 26-67.99998 10z"/>
    <path d="m1565.839 1932.1186c-44-19-73-51-73-80 0-32 22-41 59-25 35 14 54 47 49 87-3 31-3 31-35 18z"/>
    <path d="m755 1910c-9-15 28-55 66-71 23-9 36-9 54-1 30 14 31 23 7 52-21 26-114 41-127 20z"/>
    <path d="m1682 1893c-7-3-19-17-27-33-17-33-8-40 50-40 33 0 95 45 95 69 0 11-92 14-118 4z"/>
   </g>
   <g fill="#41bc3f">
    <path d="m701 1806-24-13 24-17c29-20 82-21 98-2 10 11 7 17-11 30-27 19-55 20-87 2z"/>
    <path d="m915 1791c-17-28 68-86 110-75 30 7 33 34 5 59-24 21-104 32-115 16z"/>
    <path d="m1556 1761c-15-17-16-23-6-36 18-21 83-19 111 4 31 25 16 41-43 48-35 4-47 1-62-16z"/>
   </g>
   <path d="m1144 1718c109-124 119.7351-290.7318 20.7351-392.7318l-50.6821-45.5794 48.1059-0.3179c28-3 95.8411 0.6291 147.8411 0.6291h95l-33 26c-57 45-77 97-76 194 0 70 5 95 28 144 14 33 39 76 53 95l26 34-42-24c-24-13-57-39-73-58l-30-34-41 41c-37 35-94 72-112 72-4 0 14-24 39-52z" fill="#56412e"/>
   <path d="m1724 1756c-18-14-18-16-2-32 11-11 31-18 54-17 51 2 61 16 28 42-31 25-53 26-80 7z" fill="#41bc3f"/>
   <g fill="#2c792b">
    <path d="m738 1691-33-29 44-12c51-14 84-7 113 22 20 20 20 22 3 35-33 23-91 16-127-16z"/>
    <path d="m1414 1669c-19-21-18-21 5-40 30-24 68-24 109 1 17 11 32 22 32 25 0 2-13 11-30 20-42 22-93 19-116-6z"/>
    <path d="m1010 1663c-52-35-52-49 1-58 48-8 96 9 105 37 12 39-60 53-106 21z"/>
   </g>
   <flowRoot fill="#000000" font-family="sans-serif" font-size="40px" letter-spacing="0px" word-spacing="0px" style="line-height:1.25" xml:space="preserve"><flowRegion><rect x="32.033897" y="186.1017" width="261.22882" height="145.29662"/></flowRegion><flowPara/></flowRoot>
   <text transform="scale(1,-1)" x="25.741539" y="-1736.1229" fill="#000000" font-family="sans-serif" font-size="300px" letter-spacing="0px" stroke-width="7.5" word-spacing="0px" style="line-height:1.25" xml:space="preserve"><tspan x="25.741539" y="-1470.6932" font-size="220px" letter-spacing="0px" stroke-width="7.5" word-spacing="0px"/></text>
   <flowRoot transform="matrix(7.4999999,0,0,-7.4999999,0,2700)" fill="#000000" font-family="sans-serif" font-size="40px" letter-spacing="0px" word-spacing="0px" style="line-height:1.25" xml:space="preserve"><flowRegion><rect x="249.02542" y="73.220337" width="38.574581" height="53.046329"/></flowRegion><flowPara>1975</flowPara></flowRoot>
   <g fill="#0adbcf">
    <path d="m1560.2361 2097.2891c-44-19-73-51-73-80 0-32 22-41 59-25 35 14 54 47 49 87-3 31-3 31-35 18z"/>
    <path d="m1725.7254 2129.5925c-69.1961-17.2417-105.3668-97.7032-42.4613-97.7032 34.5981 0 106.9395 63.2198 100.6489 87.6455-4.7179 17.2418-17.299 20.1154-58.1876 10.0577z" stroke-width="1.50319088"/>
    <path d="m1525.914 2257.4587c-44-19-73-51-73-80 0-32 22-41 59-25 35 14 54 47 49 87-3 31-3 31-35 18z"/>
    <path d="m1176.8629 2400.7857c-29-77-21-125 23-145 22-10 28-8 40 8 22 29 18 86-7 124-30 44-43 47-56 13z"/>
   </g>
   <g>
    <path d="m1081.1864 2173.0154c0-30 38-83 60-83 16 0 19.9999 7 19.9999 30s-7 35-31.9999 50c-40 24-48 25-48 3z" fill="#41bc3f"/>
    <path d="m1647.6863 1659.7163c-18-14-18-16-2-32 11-11 31-18 54-17 51 2 61 16 28 42-31 25-53 26-80 7z" fill="#0adbcf"/>
    <path d="m1043.6212 2288.7855c0-34 31-70 60.0001-70 32 0 26 44-11 74-39.0001 34-49.0001 33-49.0001-4z" fill="#0adbcf"/>
   </g>
  </g>
 </g>
</svg>
