<?xml version="1.0" encoding="UTF-8" standalone="no"?>
<!-- Created with Inkscape (http://www.inkscape.org/) -->

<svg
   xmlns:dc="http://purl.org/dc/elements/1.1/"
   xmlns:cc="http://creativecommons.org/ns#"
   xmlns:rdf="http://www.w3.org/1999/02/22-rdf-syntax-ns#"
   xmlns:svg="http://www.w3.org/2000/svg"
   xmlns="http://www.w3.org/2000/svg"
   xmlns:sodipodi="http://sodipodi.sourceforge.net/DTD/sodipodi-0.dtd"
   xmlns:inkscape="http://www.inkscape.org/namespaces/inkscape"
   width="40.432171mm"
   height="40.352276mm"
   viewBox="0 0 40.432171 40.352276"
   version="1.1"
   id="svg921"
   inkscape:version="0.92.4 (5da689c313, 2019-01-14)"
   sodipodi:docname="logo-double-bg.svg">
  <defs
     id="defs915" />
  <sodipodi:namedview
     id="base"
     pagecolor="#ffffff"
     bordercolor="#666666"
     borderopacity="1.0"
     inkscape:pageopacity="0.0"
     inkscape:pageshadow="2"
     inkscape:zoom="1.979899"
     inkscape:cx="-14.589346"
     inkscape:cy="91.13909"
     inkscape:document-units="mm"
     inkscape:current-layer="layer1"
     showgrid="false"
     inkscape:window-width="1920"
     inkscape:window-height="1022"
     inkscape:window-x="0"
     inkscape:window-y="0"
     inkscape:window-maximized="1"
     fit-margin-top="0"
     fit-margin-left="0"
     fit-margin-right="0"
     fit-margin-bottom="0" />
  <metadata
     id="metadata918">
    <rdf:RDF>
      <cc:Work
         rdf:about="">
        <dc:format>image/svg+xml</dc:format>
        <dc:type
           rdf:resource="http://purl.org/dc/dcmitype/StillImage" />
        <dc:title></dc:title>
      </cc:Work>
    </rdf:RDF>
  </metadata>
  <g
     inkscape:label="Layer 1"
     inkscape:groupmode="layer"
     id="layer1"
     transform="translate(-88.641053,-118.07387)">
    <rect
       style="fill:#ffffff;fill-opacity:1;stroke-width:0.32570529"
       id="rect853-3"
       width="49.578491"
       height="50.113029"
       x="83.696571"
       y="114.19304" />
    <rect
       style="fill:#a0dd9f;fill-opacity:0.39215687;stroke-width:0.32570529"
       id="rect853"
       width="49.578491"
       height="50.113029"
       x="83.696571"
       y="114.19304" />
    <g
       style="fill:#000000;stroke:none"
       transform="matrix(0.03527778,0,0,-0.03527778,64.757996,203.5817)"
       id="g162">
      <path
         d="m 1390.6779,2349.6779 c -50,-26 -65,-45 -65,-82 0,-32 2,-34 28,-28 40,10 72,51 72,92 0,19 -1,34 -2,34 -2,0 -16,-7 -33,-16 z"
         id="path8"
         style="fill:#41bc3f;fill-opacity:1"
         inkscape:connector-curvature="0" />
      <path
         d="m 927.16102,2181.25 c 0,-34 31.00004,-70 60.00004,-70 32.00004,0 26.00004,44 -11,74 -39.00004,34 -49.00004,33 -49.00004,-4 z"
         id="path10"
         inkscape:connector-curvature="0"
         style="fill:#0adbcf;fill-opacity:1" />
      <path
         d="m 1063.4195,2061.3686 c -29,-77 -21,-125 23,-145 22,-10 28,-8 40,8 22,29 18,86 -7,124 -30,44 -43,47 -56,13 z"
         id="path12"
         style="fill:#2c792b;fill-opacity:1"
         inkscape:connector-curvature="0" />
      <path
         d="m 1341.8602,2169.5381 c -42,-41 -51,-81 -26,-115 13,-17 15,-17 46,-2 44,23 65,88 45,140 -9,24 -23,20 -65,-23 z"
         id="path14"
         style="fill:#2c792b;fill-opacity:1"
         inkscape:connector-curvature="0" />
      <path
         d="m 868.51695,2060.0126 c 0,-30 38,-83 59.99997,-83 16,0 20,7 20,30 0,23 -7,35 -31.99995,50 -40.00002,24 -48.00002,25 -48.00002,3 z"
         id="path16"
         inkscape:connector-curvature="0"
         style="fill:#41bc3f;fill-opacity:1" />
      <path
         d="m 1613.356,2189.4407 c -44,-12 -67,-68 -27,-68 22,0 68,44 64,61 -3,12 -11,14 -37,7 z"
         id="path18"
         style="fill:#41bc3f;fill-opacity:1"
         inkscape:connector-curvature="0" />
      <path
         inkscape:connector-curvature="0"
         d="m 1216,2138 c -14,-32 -12,-51 7,-76 8,-10 14,-9 28,4 22,20 24,42 7,79 -15,33 -26,32 -42,-7 z"
         id="path20"
         style="fill:#41bc3f;fill-opacity:1" />
      <path
         d="m 735.72034,2023.5593 c 0,-24 57,-77 77,-73 39,8 1,71 -49,83 -22,6 -28,4 -28,-10 z"
         id="path26"
         style="fill:#0adbcf;fill-opacity:1"
         inkscape:connector-curvature="0" />
      <path
         inkscape:connector-curvature="0"
         d="m 1403,2001 c -23,-16 -48,-40 -57,-53 -19,-27 -21,-97 -3,-121 11,-16 14,-16 47,0 64,33 94,105 74,181 -8,28 -13,28 -61,-7 z"
         id="path28"
         style="fill:#41bc3f;fill-opacity:1" />
      <path
         inkscape:connector-curvature="0"
         d="m 1177,1973 c -38,-88 -29,-150 28,-187 30,-20 39,-16 61,26 23,45 14,110 -23,156 -16,19 -34,37 -39,39 -6,2 -18,-13 -27,-34 z"
         id="path30"
         style="fill:#2c792b;fill-opacity:1" />
      <path
         d="m 1684.1949,1983.839 c -14,-4 -30,-18 -37,-31 -12,-23 -11,-25 14,-28 20,-3 34,4 50,23 37,42 30,52 -27,36 z"
         id="path32"
         style="fill:#41bc3f;fill-opacity:1"
         inkscape:connector-curvature="0" />
      <path
         d="m 961.52542,1918.4958 c 0,-24 30,-79 50.99998,-94 29,-20 69,-21 69,-2 0,32 -21,67 -52,86 -35.99998,22 -67.99998,26 -67.99998,10 z"
         id="path34"
         style="fill:#2c792b;fill-opacity:1"
         inkscape:connector-curvature="0" />
      <path
         d="m 1565.839,1932.1186 c -44,-19 -73,-51 -73,-80 0,-32 22,-41 59,-25 35,14 54,47 49,87 -3,31 -3,31 -35,18 z"
         id="path36"
         style="fill:#2c792b;fill-opacity:1"
         inkscape:connector-curvature="0" />
      <path
         inkscape:connector-curvature="0"
         d="m 755,1910 c -9,-15 28,-55 66,-71 23,-9 36,-9 54,-1 30,14 31,23 7,52 -21,26 -114,41 -127,20 z"
         id="path38"
         style="fill:#2c792b;fill-opacity:1" />
      <path
         inkscape:connector-curvature="0"
         d="m 1682,1893 c -7,-3 -19,-17 -27,-33 -17,-33 -8,-40 50,-40 33,0 95,45 95,69 0,11 -92,14 -118,4 z"
         id="path40"
         style="fill:#2c792b;fill-opacity:1" />
      <path
         inkscape:connector-curvature="0"
         d="m 701,1806 -24,-13 24,-17 c 29,-20 82,-21 98,-2 10,11 7,17 -11,30 -27,19 -55,20 -87,2 z"
         id="path46"
         style="fill:#41bc3f;fill-opacity:1" />
      <path
         inkscape:connector-curvature="0"
         d="m 915,1791 c -17,-28 68,-86 110,-75 30,7 33,34 5,59 -24,21 -104,32 -115,16 z"
         id="path50"
         style="fill:#41bc3f;fill-opacity:1" />
      <path
         inkscape:connector-curvature="0"
         d="m 1556,1761 c -15,-17 -16,-23 -6,-36 18,-21 83,-19 111,4 31,25 16,41 -43,48 -35,4 -47,1 -62,-16 z"
         id="path60"
         style="fill:#41bc3f;fill-opacity:1" />
      <path
         inkscape:connector-curvature="0"
         d="m 1144,1718 c 109,-124 115,-277 16,-379 l -45,-47 50,-6 c 28,-3 93,-6 145,-6 h 95 l -33,26 c -57,45 -77,97 -76,194 0,70 5,95 28,144 14,33 39,76 53,95 l 26,34 -42,-24 c -24,-13 -57,-39 -73,-58 l -30,-34 -41,41 c -37,35 -94,72 -112,72 -4,0 14,-24 39,-52 z"
         id="path64"
         style="fill:#56412e;fill-opacity:1" />
      <path
         inkscape:connector-curvature="0"
         d="m 1724,1756 c -18,-14 -18,-16 -2,-32 11,-11 31,-18 54,-17 51,2 61,16 28,42 -31,25 -53,26 -80,7 z"
         id="path66"
         style="fill:#41bc3f;fill-opacity:1" />
      <path
         inkscape:connector-curvature="0"
         d="m 738,1691 -33,-29 44,-12 c 51,-14 84,-7 113,22 20,20 20,22 3,35 -33,23 -91,16 -127,-16 z"
         id="path70"
         style="fill:#2c792b;fill-opacity:1" />
      <path
         inkscape:connector-curvature="0"
         d="m 1414,1669 c -19,-21 -18,-21 5,-40 30,-24 68,-24 109,1 17,11 32,22 32,25 0,2 -13,11 -30,20 -42,22 -93,19 -116,-6 z"
         id="path72"
         style="fill:#2c792b;fill-opacity:1" />
      <path
         inkscape:connector-curvature="0"
         d="m 1010,1663 c -52,-35 -52,-49 1,-58 48,-8 96,9 105,37 12,39 -60,53 -106,21 z"
         id="path74"
         style="fill:#2c792b;fill-opacity:1" />
      <flowRoot
         xml:space="preserve"
         id="flowRoot975"
         style="font-style:normal;font-weight:normal;font-size:40px;line-height:1.25;font-family:sans-serif;letter-spacing:0px;word-spacing:0px;fill:#000000;fill-opacity:1;stroke:none"><flowRegion
           id="flowRegion977"><rect
             id="rect979"
             width="261.22882"
             height="145.29662"
             x="32.033897"
             y="186.1017" /></flowRegion><flowPara
           id="flowPara981" /></flowRoot>      <text
         xml:space="preserve"
         style="font-style:normal;font-weight:normal;font-size:300px;line-height:1.25;font-family:sans-serif;letter-spacing:0px;word-spacing:0px;fill:#000000;fill-opacity:1;stroke:none;stroke-width:7.5"
         x="25.741539"
         y="-1736.1229"
         id="text1006"
         transform="scale(1,-1)"><tspan
           sodipodi:role="line"
           id="tspan1004"
           x="25.741539"
           y="-1470.6932"
           style="font-size:220px;letter-spacing:0px;word-spacing:0px;stroke-width:7.5" /></text>
      <flowRoot
         xml:space="preserve"
         id="flowRoot1008"
         style="font-style:normal;font-weight:normal;font-size:40px;line-height:1.25;font-family:sans-serif;letter-spacing:0px;word-spacing:0px;fill:#000000;fill-opacity:1;stroke:none"
         transform="matrix(7.4999999,0,0,-7.4999999,0,2700)"><flowRegion
           id="flowRegion1010"><rect
             id="rect1012"
             width="38.574581"
             height="53.046329"
             x="249.02542"
             y="73.220337" /></flowRegion><flowPara
           id="flowPara1014">1975</flowPara></flowRoot>      <path
         style="fill:#0adbcf;fill-opacity:1;stroke-width:1"
         inkscape:connector-curvature="0"
         d="m 1560.2361,2097.2891 c -44,-19 -73,-51 -73,-80 0,-32 22,-41 59,-25 35,14 54,47 49,87 -3,31 -3,31 -35,18 z"
         id="path36-7" />
      <path
         style="fill:#0adbcf;fill-opacity:1;stroke-width:1.50319088"
         inkscape:connector-curvature="0"
         d="m 1725.7254,2129.5925 c -69.1961,-17.2417 -105.3668,-97.7032 -42.4613,-97.7032 34.5981,0 106.9395,63.2198 100.6489,87.6455 -4.7179,17.2418 -17.299,20.1154 -58.1876,10.0577 z"
         id="path18-5" />
      <path
         style="fill:#0adbcf;fill-opacity:1;stroke-width:1"
         inkscape:connector-curvature="0"
         d="m 1525.914,2257.4587 c -44,-19 -73,-51 -73,-80 0,-32 22,-41 59,-25 35,14 54,47 49,87 -3,31 -3,31 -35,18 z"
         id="path36-7-3-6" />
      <path
         style="fill:#0adbcf;fill-opacity:1;stroke-width:1"
         inkscape:connector-curvature="0"
         d="m 1176.8629,2400.7857 c -29,-77 -21,-125 23,-145 22,-10 28,-8 40,8 22,29 18,86 -7,124 -30,44 -43,47 -56,13 z"
         id="path12-9" />
      <path
         style="fill:#41bc3f;fill-opacity:1;stroke-width:1"
         inkscape:connector-curvature="0"
         d="m 1081.1864,2173.0154 c 0,-30 38,-83 60,-83 16,0 19.9999,7 19.9999,30 0,23 -7,35 -31.9999,50 -40,24 -48,25 -48,3 z"
         id="path16-1-0" />
      <path
         inkscape:connector-curvature="0"
         d="m 1647.6863,1659.7163 c -18,-14 -18,-16 -2,-32 11,-11 31,-18 54,-17 51,2 61,16 28,42 -31,25 -53,26 -80,7 z"
         id="path66-3"
         style="fill:#0adbcf;fill-opacity:1;stroke-width:1" />
      <path
         d="m 1043.6212,2288.7855 c 0,-34 31,-70 60.0001,-70 32,0 26,44 -11,74 -39.0001,34 -49.0001,33 -49.0001,-4 z"
         id="path10-0"
         inkscape:connector-curvature="0"
         style="fill:#0adbcf;fill-opacity:1;stroke-width:1" />
    </g>
  </g>
</svg>
