<svg width="20mm" height="20mm" version="1.1" viewBox="0 0 20 20" xmlns="http://www.w3.org/2000/svg">
 <g transform="translate(-14.699823,-37.481285)">
  <rect x="14.699823" y="37.481285" width="20" height="20" rx="4.2763124" ry="4.2763124" fill="#41bc3f" stroke-width=".26458332"/>
  <g>
   <g transform="matrix(.26458333 0 0 .26458333 10.530721 -16.790449)" aria-label=" C">
    <path d="m85.761719 243.85352v4.16015q-1.992188-1.85547-4.257813-2.77344-2.246094-0.91796-4.785156-0.91796-5 0-7.65625 3.0664-2.65625 3.04688-2.65625 8.82813 0 5.76172 2.65625 8.82812 2.65625 3.04688 7.65625 3.04688 2.539062 0 4.785156-0.91797 2.265625-0.91797 4.257813-2.77344v4.12109q-2.070313 1.40625-4.394532 2.10938-2.304687 0.70312-4.882812 0.70312-6.621094 0-10.429688-4.04296-3.808593-4.0625-3.808593-11.07422 0-7.03125 3.808593-11.07422 3.808594-4.0625 10.429688-4.0625 2.617187 0 4.921875 0.70312 2.324219 0.6836 4.355469 2.07032z" style=""/>
   </g>
   <g transform="matrix(.26458333 0 0 .26458333 -43.694303 -36.995389)" aria-label="W">
    <path d="m240.73437 288.30273h3.98438l6.13281 24.64844 6.11328-24.64844h4.4336l6.13281 24.64844 6.11328-24.64844h4.00391l-7.32422 29.16016h-4.96094l-6.15234-25.3125-6.21094 25.3125h-4.96094z" style=""/>
   </g>
   <g transform="matrix(.26458333 0 0 .26458333 -26.613936 -24.869026)" aria-label="U">
    <path d="m161.06055 272.14062h3.96484v17.71485q0 4.6875 1.69922 6.75781 1.69922 2.05078 5.50781 2.05078 3.78906 0 5.48828-2.05078 1.69922-2.07031 1.69922-6.75781v-17.71485h3.96485v18.20313q0 5.70312-2.83204 8.61328-2.8125 2.91016-8.32031 2.91016-5.52734 0-8.35937-2.91016-2.8125-2.91016-2.8125-8.61328z" style=""/>
   </g>
  </g>
 </g>
</svg>
