<svg width="75.172874mm" height="75.73127mm" version="1.1" viewBox="0 0 75.172874 75.73127" xmlns="http://www.w3.org/2000/svg">
 <g transform="translate(-96.746346,14.431111)">
  <path d="m140.46384-11.814698c-1.76389 0.917222-2.29305 1.5875-2.29305 2.8927779 0 1.128889 0.0705 1.1994446 0.98777 0.9877779 1.41111-0.3527778 2.54-1.7991668 2.54-3.2455558 0-0.670278-0.0353-1.199445-0.0705-1.199445-0.0706 0-0.56445 0.246945-1.16417 0.564445z" fill="#41bc3f"/>
  <path d="m124.11199-5.8729356c0 1.1994445 1.09362 2.4694446 2.11667 2.4694446 1.12889 0 0.91723-1.5522223-0.38805-2.6105557-1.37584-1.1994446-1.72862-1.1641668-1.72862 0.1411111z" fill="#0adbcf"/>
  <path d="m128.91889-1.643786c-1.02305 2.7163891-0.74083 4.4097225 0.81139 5.1152781 0.77611 0.3527778 0.98778 0.2822223 1.41111-0.2822222 0.77611-1.0230556 0.635-3.03388909-0.24694-4.3744447-1.05834-1.5522223-1.51695-1.6580557-1.97556-0.4586112z" fill="#2c792b"/>
  <path d="m138.74166-5.4597658c-1.48167 1.446389-1.79917 2.8575002-0.91722 4.0569447 0.45861 0.59972227 0.52917 0.59972227 1.62278 0.070556 1.55222-0.811389 2.29305-3.1044447 1.5875-4.9388892-0.3175-0.8466668-0.81139-0.7055556-2.29306 0.8113885z" fill="#2c792b"/>
  <g fill="#41bc3f">
   <path d="m122.04316-1.5959493c0 1.0583334 1.34056 2.9280557 2.11667 2.9280557 0.56444 0 0.70555-0.2469444 0.70555-1.05833336 0-0.81138894-0.24694-1.2347223-1.12888-1.76388904-1.41112-0.8466667-1.69334-0.8819445-1.69334-0.1058333z"/>
   <path d="m148.31943-6.1618853c-1.55222 0.4233333-2.36361 2.398889-0.9525 2.398889 0.77611 0 2.39889-1.5522223 2.25778-2.1519446-0.10584-0.4233333-0.38806-0.4938889-1.30528-0.2469444z"/>
   <path d="m134.30159-4.3471716c-0.49389 1.1288889-0.42333 1.7991667 0.24695 2.6811112 0.28222 0.3527778 0.49389 0.3175001 0.98777-0.1411111 0.77612-0.7055556 0.84667-1.4816667 0.24695-2.7869446-0.52917-1.1641667-0.91722-1.128889-1.48167 0.2469445z"/>
  </g>
  <path d="m117.35839-0.3099578c0 0.84666672 2.01084 2.7163891 2.71639 2.5752779 1.37583-0.2822222 0.0353-2.50472234-1.72861-2.9280557-0.77611-0.21166668-0.98778-0.14111112-0.98778 0.3527778z" fill="#0adbcf"/>
  <path d="m140.89854 0.48588422c-0.81139 0.56444448-1.69334 1.41111118-2.01084 1.86972238-0.67027 0.9525-0.74083 3.4219446-0.10583 4.2686113 0.38806 0.5644445 0.49389 0.5644445 1.65806 0 2.25777-1.1641667 3.31611-3.7041669 2.61055-6.38527814-0.28222-0.98777784-0.45861-0.98777784-2.15194 0.24694446z" fill="#41bc3f"/>
  <path d="m132.92576 1.4736621c-1.34056 3.1044446-1.02306 5.291667 0.98778 6.5969448 1.05833 0.7055556 1.37583 0.5644445 2.15194-0.9172223 0.81139-1.5875001 0.49389-3.8805558-0.81139-5.5033336-0.56444-0.67027786-1.19944-1.3052779-1.37583-1.37583346-0.21167-0.0705556-0.635 0.45861114-0.9525 1.19944456z" fill="#2c792b"/>
  <path d="m150.81847 1.0912862c-0.49389 0.1411111-1.05833 0.635-1.30528 1.0936112-0.42333 0.8113889-0.38805 0.8819445 0.49389 0.9877778 0.70556 0.1058334 1.19944-0.1411111 1.76389-0.8113889 1.30528-1.48166678 1.05833-1.83444458-0.9525-1.2700001z" fill="#41bc3f"/>
  <g fill="#2c792b">
   <path d="m125.32429 3.3964492c0 0.8466668 1.05834 2.7869447 1.79917 3.3161114 1.02306 0.7055556 2.43417 0.7408333 2.43417 0.070556 0-1.1288889-0.74084-2.3636112-1.83445-3.0338891-1.27-0.7761111-2.39889-0.9172222-2.39889-0.3527783z"/>
   <path d="m146.64314 2.9158671c-1.55223 0.6702778-2.57528 1.7991668-2.57528 2.8222224 0 1.128889 0.77611 1.446389 2.08139 0.8819445 1.23472-0.4938889 1.905-1.6580557 1.72861-3.0691669-0.10584-1.0936111-0.10584-1.0936111-1.23472-0.635z"/>
   <path d="m118.03854 3.6961622c-0.3175 0.5291667 0.98777 1.9402779 2.32833 2.5047224 0.81139 0.3175 1.27 0.3175 1.905 0.035278 1.05833-0.493889 1.09361-0.811389 0.24694-1.8344446-0.74083-0.9172223-4.02166-1.446389-4.48027-0.7055558z"/>
   <path d="m150.74104 4.2958845c-0.24695 0.1058333-0.67028 0.5997222-0.9525 1.1641667-0.59972 1.1641667-0.28222 1.4111112 1.76389 1.4111112 1.16416 0 3.35139-1.5875001 3.35139-2.4341668 0-0.3880556-3.24556-0.4938889-4.16278-0.1411111z"/>
  </g>
  <g fill="#41bc3f">
   <path d="m116.13354 7.3650513-0.84667 0.4586112 0.84667 0.5997222c1.02305 0.7055556 2.89277 0.7408334 3.45722 0.070556 0.35278-0.3880556 0.24694-0.5997223-0.38806-1.0583334-0.9525-0.6702778-1.94028-0.7055556-3.06916-0.070556z"/>
   <path d="m123.68298 7.894218c-0.59972 0.9877779 2.39889 3.033889 3.88056 2.645834 1.05833-0.246945 1.16416-1.199445 0.17639-2.0813895-0.84667-0.7408334-3.66889-1.128889-4.05695-0.5644445z"/>
   <path d="m146.29604 8.9525514c-0.52917 0.5997223-0.56445 0.811389-0.21167 1.2700006 0.635 0.740833 2.92806 0.670277 3.91583-0.141112 1.09362-0.8819441 0.56445-1.4463886-1.51694-1.6933331-1.23472-0.1411111-1.65806-0.035278-2.18722 0.5644445z"/>
  </g>
  <path d="m152.2227 9.1289403c-0.635 0.4938889-0.635 0.5644445-0.0705 1.1288887 0.38805 0.388056 1.09361 0.635 1.905 0.599723 1.79917-0.07056 2.15194-0.564445 0.98778-1.4816672-1.09361-0.8819445-1.86973-0.9172223-2.82223-0.2469445z" fill="#41bc3f"/>
  <g fill="#2c792b">
   <path d="m117.43881 11.421996-1.16416 1.023056 1.55222 0.423333c1.79917 0.493889 2.96333 0.246944 3.98639-0.776111 0.70555-0.705556 0.70555-0.776111 0.10583-1.234722-1.16417-0.811389-3.21028-0.564445-4.48028 0.564444z"/>
   <path d="m141.28659 12.198107c-0.67027 0.740834-0.635 0.740834 0.17639 1.411111 1.05834 0.846667 2.39889 0.846667 3.84528-0.03528 0.59972-0.388056 1.12889-0.776112 1.12889-0.881945 0-0.07055-0.45861-0.388055-1.05833-0.705555-1.48167-0.776112-3.28084-0.670278-4.09223 0.211666z"/>
   <path d="m127.03437 12.409774c-1.83444 1.234722-1.83444 1.728611 0.0353 2.046111 1.69333 0.282222 3.38666-0.3175 3.70416-1.305278 0.42334-1.375833-2.11666-1.869722-3.73944-0.740833z"/>
  </g>
  <g font-size="10.5833px" letter-spacing="0px" stroke-width=".26458299" word-spacing="0px">
   <g aria-label="EST.">
    <path d="m100.40958 8.3160369h-0.0776c-0.24059 0.5898444-0.551039 1.0167054-1.373717 1.0167054h-1.1176v-2.3283329h1.319389c0.20955 0.00776 0.372533 0.1785055 0.372533 0.3880554v0.1086556h0.07761v-1.2262554h-0.07761v0.1164167c0 0.2095499-0.170744 0.3802944-0.380294 0.3802944h-1.311628v-2.398183h1.583267c0.248355 0.015522 0.434622 0.2173111 0.434622 0.4656666v0.1319389l0.07761 0.00776v-0.9856599c-0.1397 0.062089-0.589844 0.1397-0.923572 0.1397h-2.266244v0.077611h0.100894c0.256117 0 0.465667 0.2017889 0.48895 0.4501444v4.3462215c0 0.2638777-0.225072 0.4889499-0.496711 0.4889499h-0.09313v0.077611h3.213099z"/>
    <path d="m102.08598 5.8712873c-0.24836-0.2328333-0.31045-0.5122332-0.31045-0.7217832 0-0.4656666 0.3803-0.8925276 0.95462-0.8925276 0.48119 0 0.86924 0.3026833 0.86924 0.7993943h0.0776v-0.9468554h-0.31045c-0.20955-0.046567-0.4579-0.085372-0.66745-0.085372-0.88477 0-1.3582 0.6596943-1.3582 1.3116275 0 0.3026833 0.1009 0.6752166 0.4191 0.9623777l1.48237 1.3814775c0.19403 0.1862666 0.31045 0.4190999 0.31045 0.7295443 0 0.6131277-0.47343 1.0011832-1.03999 1.0399888-0.69074 0.031044-1.20297-0.4734277-1.12536-1.2805832h-0.0621c-0.12418 0.34925-0.14746 0.845961-0.0931 1.0865554 0.30268 0.3182055 0.93133 0.426861 1.31162 0.426861 0.89253 0 1.45909-0.5976054 1.45909-1.4513275 0-0.3182055-0.0854-0.6596943-0.39581-0.9468554z"/>
    <path d="m105.5319 4.1250376c-0.33373 0-0.79163-0.077611-0.93133-0.1397v0.9778999h0.0776v-0.1397c0-0.2483555 0.19402-0.4501444 0.44238-0.4656666h1.46685v4.6566659c-8e-3 0.2638777-0.22507 0.4811888-0.49671 0.4811888h-0.0931l-8e-3 0.077611h1.69969v-0.077611h-0.0931c-0.27164 0-0.48895-0.2173111-0.49671-0.4889499v-4.6489048h1.46685c0.24836 0.015522 0.44239 0.2173111 0.44239 0.4656666v0.1397h0.0776v-0.9778999c-0.14746 0.062089-0.59761 0.1397-0.93134 0.1397z"/>
    <path d="m109.31929 9.59662c0.18627 0 0.34925-0.1552222 0.34925-0.3492499 0-0.1862666-0.16298-0.3492499-0.34925-0.3492499-0.19403 0-0.34925 0.1629833-0.34925 0.3492499 0 0.1940277 0.15522 0.3492499 0.34925 0.3492499z"/>
   </g>
   <g aria-label="1975">
    <path d="m158.32767 9.5457497v-0.077611h0.16299c0.23283 0 0.42686-0.1862667 0.42686-0.4191v-4.0901049c0-0.2483556-0.12418-0.3802944-0.35701-0.3802944h-0.28717v-0.077611c0.40358-0.054328 0.76059-0.1319389 1.06328-0.4967111h0.0776v5.0524825c0 0.2328333 0.20179 0.4113389 0.42686 0.4113389h0.16298l8e-3 0.077611z"/>
    <path d="m163.38792 6.5887668c-0.20179 0.2638778-0.52776 0.3880555-0.84597 0.3958166-0.67521 0.015522-1.03222-0.5277554-1.04775-1.2805831-0.0155-0.776111 0.31045-1.4513275 1.04775-1.4435664 0.7994-0.00776 1.19522 0.7838721 1.19522 2.048933 0 1.5366997-0.58985 3.0578772-2.0567 3.4692161l0.031 0.054328c1.79281-0.1552222 2.60773-2.0334107 2.60773-3.5778716 0-1.4358053-0.70626-2.2507219-1.7773-2.2351996-0.95461 0.015522-1.66087 0.6984999-1.62983 1.7928163 0.0466 1.6531164 1.74625 1.8238608 2.52236 0.845961z"/>
    <path d="m165.23505 4.128495h3.09669l-0.8382 2.2351996c-0.18627 0.5122333-0.83044 2.328333-1.03999 3.1820551h-0.54328c0.31821-0.7838721 0.94686-2.3593774 1.27282-3.2130995l0.68298-1.7928164h-2.19639c-0.31045 0-0.46567 0.1629833-0.57433 0.4656666h-0.0776z"/>
    <path d="m171.91736 3.8879006h-0.0776c-0.12418 0.2328333-0.29492 0.3880555-0.62089 0.3880555l-1.52894 0.1164166-0.61313 2.1110219 0.0699 0.031045c1.27283-0.4346222 2.26625 0.062089 2.18864 1.1020775-0.1009 1.4280443-1.6376 2.0877386-2.28953 2.0722164l-0.0155 0.077611c0.64417 0.1164166 2.80952-0.3259666 2.88713-2.2041552 0.0543-1.3504331-1.14088-1.8626664-2.43699-1.5289387l0.35701-1.2340164 1.8161-0.1164167z"/>
   </g>
   <g aria-label="WOODLANDS">
    <path d="m106.53833 27.274765v0.105833h0.0952c0.28575 0 0.51859 0.232833 0.41275 0.634998l-1.41816 4.952984-2.08491-5.852564h-0.10583l-1.9685 6.074814-1.598074-5.154067c-0.126999-0.412749 0.137584-0.656165 0.412754-0.656165h0.0952v-0.09525h-2.349488v0.105833h0.08467c0.317499 0 0.751414 0.179916 0.920747 0.634997l2.402401 6.794479h0.10584c0.0106-0.529165 0.22225-1.18533 0.22225-1.18533l1.59808-4.868318 2.16957 6.053648h0.0952c0.0106-0.507999 0.23283-1.18533 0.23283-1.18533l1.74625-5.598565c0.16933-0.465665 0.61383-0.645581 0.93133-0.645581h0.0952v-0.105833z"/>
    <path d="m112.80361 27.126599c-2.25425 0-3.79941 1.545162-3.79941 3.852321 0 2.317743 1.54516 3.852321 3.79941 3.852321 2.25424 0 3.7994-1.534578 3.7994-3.852321 0-2.307159-1.54516-3.852321-3.7994-3.852321zm0 7.397726c-1.79916 0-2.99508-1.418162-2.99508-3.534822 0-2.127243 1.19592-3.545405 2.99508-3.545405s2.99507 1.418162 2.99507 3.545405c0 2.11666-1.19591 3.534822-2.99507 3.534822z"/>
    <path d="m121.6724 27.126599c-2.25424 0-3.7994 1.545162-3.7994 3.852321 0 2.317743 1.54516 3.852321 3.7994 3.852321 2.25425 0 3.79941-1.534578 3.79941-3.852321 0-2.307159-1.54516-3.852321-3.79941-3.852321zm0 7.397726c-1.79916 0-2.99507-1.418162-2.99507-3.534822 0-2.127243 1.19591-3.545405 2.99507-3.545405s2.99508 1.418162 2.99508 3.545405c0 2.11666-1.19592 3.534822-2.99508 3.534822z"/>
    <path d="m126.42429 27.285349v0.09525h0.13759c0.34924 0 0.66674 0.264583 0.66674 0.613832v5.926647c0 0.370416-0.30691 0.666748-0.67733 0.666748h-0.127l-0.0106 0.105833h3.58774c2.26482 0 3.7994-1.481662 3.7994-3.704155s-1.53458-3.704154-3.7994-3.704154zm1.49225 0.317498h2.08491c1.79916 0 3.00566 1.354663 3.00566 3.386656 0 2.021411-1.19592 3.376073-3.00566 3.376073h-2.08491z"/>
    <path d="m139.64282 32.979164c-0.32808 0.80433-0.75141 1.386412-1.87324 1.386412h-1.524v-6.31823c0.0106-0.359832 0.30692-0.656164 0.67733-0.656164h0.13759v-0.105833h-2.30716v0.105833h0.127c0.37041 0 0.67733 0.296332 0.67733 0.656164v5.873731c0 0.359833-0.30692 0.666748-0.67733 0.666748h-0.127v0.105833h4.38148l0.61383-1.714494z"/>
    <path d="m143.86554 27.126599h-0.0953c0 0.232833-0.39158 1.09008-0.39158 1.09008l-2.40241 5.704398c-0.21167 0.465666-0.60325 0.656165-0.93133 0.656165h-0.0952v0.105833h2.13783v-0.09525h-0.0952c-0.27517 0-0.55034-0.243416-0.40217-0.666748l0.70908-1.809744h2.84691l0.67733 1.809744c0.15875 0.423332-0.127 0.666748-0.40216 0.666748h-0.0952v0.09525h2.38124v-0.105833h-0.0847c-0.32808 0-0.71966-0.190499-0.93133-0.656165zm-1.43933 4.667235 1.32291-3.386656 1.28058 3.386656z"/>
    <path d="m153.84559 27.274765v0.105833h0.1905c0.35983 0 0.64558 0.296333 0.65617 0.645581v5.249317l-5.7679-6.148897h-0.0953s0.0953 0.592665 0.0953 1.312329v5.503316c-0.0106 0.359832-0.29634 0.645581-0.65617 0.645581h-0.1905l-0.0106 0.105833h2.18016v-0.105833h-0.1905c-0.35983 0-0.64558-0.285749-0.65616-0.634998v-5.270483l5.77848 6.15948h0.0952s-0.10584-0.677331-0.10584-1.354662v-5.471566c0.0212-0.349249 0.30692-0.634998 0.65617-0.634998h0.20108v-0.105833z"/>
    <path d="m157.03116 27.285349v0.09525h0.13758c0.34925 0 0.66675 0.264583 0.66675 0.613832v5.926647c0 0.370416-0.30692 0.666748-0.67733 0.666748h-0.127l-0.0106 0.105833h3.58774c2.26483 0 3.79941-1.481662 3.79941-3.704155s-1.53458-3.704154-3.79941-3.704154zm1.49224 0.317498h2.08491c1.79916 0 3.00566 1.354663 3.00566 3.386656 0 2.021411-1.19591 3.376073-3.00566 3.376073h-2.08491z"/>
    <path d="m166.74662 29.645424c-0.33867-0.317499-0.42333-0.698497-0.42333-0.984247 0-0.634998 0.51858-1.217079 1.30174-1.217079 0.65617 0 1.18533 0.412749 1.18533 1.09008h0.10584v-1.291163h-0.42334c-0.28575-0.0635-0.62441-0.116416-0.91016-0.116416-1.2065 0-1.85208 0.89958-1.85208 1.788578 0 0.412748 0.13758 0.920747 0.5715 1.312329l2.02141 1.883827c0.26458 0.253999 0.42333 0.571498 0.42333 0.99483 0 0.836081-0.64558 1.365246-1.41816 1.418162-0.94191 0.04233-1.64041-0.645581-1.53458-1.746244h-0.0847c-0.16934 0.476249-0.20109 1.15358-0.127 1.481662 0.41274 0.433915 1.26999 0.582081 1.78857 0.582081 1.21708 0 1.98966-0.814914 1.98966-1.979077 0-0.433915-0.11641-0.89958-0.53974-1.291162z"/>
   </g>
   <g aria-label="UNIVERSITY">
    <path d="m108.2348 40.503933v0.105833h0.16933c0.29634 0 0.55034 0.222249 0.56092 0.518582v4.16982c0 1.460495-0.94191 2.434159-2.36008 2.434159-1.34408 0-2.24366-1.02658-2.24366-2.571742v-4.032237c0.0106-0.296333 0.254-0.518582 0.55033-0.518582h0.17992v-0.105833h-2.14841v0.105833h0.16933c0.30692 0 0.55034 0.222249 0.56092 0.529165v4.180403c0 1.650995 1.17475 2.751658 2.93157 2.751658 1.7145 0 2.85749-1.111246 2.85749-2.772824v-4.180403c0.0106-0.296333 0.254-0.507999 0.55034-0.507999h0.17991v-0.105833z"/>
    <path d="m116.82843 40.503933v0.105833h0.1905c0.35984 0 0.64558 0.296333 0.65617 0.645581v5.249317l-5.7679-6.148897h-0.0953s0.0953 0.592665 0.0953 1.312329v5.503316c-0.0106 0.359832-0.29633 0.645581-0.65617 0.645581h-0.19049l-0.0106 0.105833h2.18016v-0.105833h-0.1905c-0.35983 0-0.64558-0.285749-0.65616-0.634998v-5.270483l5.77848 6.15948h0.0953s-0.10583-0.677331-0.10583-1.354662v-5.471566c0.0212-0.349249 0.30691-0.634998 0.65616-0.634998h0.20108v-0.105833z"/>
    <path d="m122.32116 47.80641h-0.13758c-0.37042 0-0.66675-0.296332-0.67734-0.656165v-5.873731c0.0106-0.370415 0.3175-0.666748 0.67734-0.666748h0.13758v-0.105833h-2.30716v0.105833h0.127c0.37041 0 0.67733 0.296333 0.67733 0.666748v5.873731c0 0.359833-0.30692 0.656165-0.67733 0.656165h-0.127v0.105833h2.30716z"/>
    <path d="m128.7558 40.503933v0.105833h0.0952c0.27516 0 0.56091 0.243416 0.40216 0.666748l-2.29657 5.545649-2.2225-5.545649c-0.14816-0.423332 0.127-0.666748 0.40217-0.666748h0.0953v-0.105833h-2.39183v0.105833h0.0847c0.33867 0 0.73025 0.201083 0.94191 0.666748l2.97391 6.794478h0.0952c0-0.232832 0.39158-1.090079 0.39158-1.090079l2.53999-5.714982c0.22225-0.465665 0.60325-0.656165 0.93134-0.656165h0.0952v-0.105833z"/>
    <path d="m136.4181 46.208332h-0.10583c-0.32808 0.80433-0.75141 1.386412-1.87324 1.386412h-1.524v-3.17499h1.79916c0.28575 0.01058 0.508 0.243416 0.508 0.529165v0.148166h0.10583v-1.672161h-0.10583v0.158749c0 0.285749-0.23283 0.518582-0.51858 0.518582h-1.78858v-3.27024h2.15899c0.33867 0.02117 0.59267 0.296333 0.59267 0.634998v0.179917l0.10583 0.01058v-1.344079c-0.1905 0.08467-0.80433 0.190499-1.25941 0.190499h-3.09032v0.105833h0.13758c0.34925 0 0.635 0.275166 0.66675 0.613832v5.926647c0 0.359833-0.30692 0.666748-0.67733 0.666748h-0.127v0.105833h4.38148z"/>
    <path d="m137.42351 40.503933v0.105833h0.127c0.37042 0 0.67733 0.296333 0.67733 0.666748v5.873731c-0.0106 0.370416-0.30691 0.666748-0.67733 0.666748h-0.127v0.105833h2.30716v-0.105833h-0.13758c-0.37042 0-0.66675-0.306915-0.67733-0.666748v-6.307646c0.13758 0 0.78316-0.02117 1.32291 0 0.78316 0.04233 1.28058 0.656164 1.31233 1.619245 0 0.232832-0.0212 0.486831-0.0741 0.634998-0.29633 0.952497-1.10066 1.079496-1.65099 1.100663h-0.56091v0.09525c0.39158 0 0.69849 0.370416 0.97366 0.719665 0.0847 0.09525 1.28058 1.830911 1.39699 1.979077 0.32809 0.391582 0.85725 0.920747 1.8415 0.920747h0.58208v-0.105834c-0.61383 0-1.00541-0.328082-1.43933-0.793748-0.40216-0.444498-1.32291-1.756827-1.32291-1.756827-0.20108-0.285749-0.52917-0.634998-0.75142-0.740831 1.016 0 1.79917-0.99483 1.79917-2.021411 0-1.227662-0.79375-1.98966-2.07433-1.98966z"/>
    <path d="m145.55146 42.874592c-0.33866-0.317499-0.42333-0.698498-0.42333-0.984247 0-0.634998 0.51858-1.217079 1.30175-1.217079 0.65616 0 1.18533 0.412749 1.18533 1.09008h0.10583v-1.291163h-0.42333c-0.28575-0.0635-0.62442-0.116416-0.91017-0.116416-1.20649 0-1.85207 0.89958-1.85207 1.788578 0 0.412748 0.13758 0.920747 0.57149 1.312329l2.02141 1.883827c0.26459 0.253999 0.42334 0.571498 0.42334 0.99483 0 0.836081-0.64559 1.365246-1.41817 1.418162-0.94191 0.04233-1.64041-0.645581-1.53457-1.746244h-0.0847c-0.16933 0.476248-0.20108 1.15358-0.127 1.481662 0.41275 0.433915 1.27 0.582081 1.78858 0.582081 1.21708 0 1.98966-0.814914 1.98966-1.979077 0-0.433915-0.11642-0.89958-0.53975-1.291162z"/>
    <path d="m151.71093 47.80641h-0.13759c-0.37041 0-0.66675-0.296332-0.67733-0.656165v-5.873731c0.0106-0.370415 0.3175-0.666748 0.67733-0.666748h0.13759v-0.105833h-2.30716v0.105833h0.127c0.37041 0 0.67733 0.296333 0.67733 0.666748v5.873731c0 0.359833-0.30692 0.656165-0.67733 0.656165h-0.127v0.105833h2.30716z"/>
    <path d="m153.82758 40.49335c-0.45508 0-1.0795-0.105833-1.27-0.1905v1.333496h0.10584v-0.190499c0-0.338666 0.26458-0.613832 0.60324-0.634998h2.00025v6.34998c-0.0106 0.359832-0.30692 0.656164-0.67733 0.656164h-0.127l-0.0106 0.105833h2.31775v-0.105833h-0.127c-0.37042 0-0.66675-0.296332-0.67733-0.666748v-6.339396h2.00024c0.33866 0.02117 0.60325 0.296332 0.60325 0.634998v0.190499h0.10583v-1.333496c-0.20108 0.08467-0.81491 0.1905-1.27 0.1905z"/>
    <path d="m163.63828 40.503933v0.105833h0.13758c0.28575 0 0.53975 0.349249 0.381 0.656165h-0.0106l-1.68275 2.963324-1.58749-2.952741c-0.15875-0.306916 0.0635-0.666748 0.37041-0.666748h0.127v-0.105833h-2.59291v0.105833h0.13759c0.44449 0 0.85724 0.296333 1.06891 0.624415l2.01083 3.365489v2.550575c-0.0106 0.370416-0.30692 0.666748-0.67734 0.666748h-0.13758v0.105833h2.31774v-0.105833h-0.13758c-0.37041 0-0.66675-0.306915-0.67733-0.666748v-2.539992l2.09549-3.376072c0.22225-0.328082 0.61383-0.613832 1.05833-0.613832h0.14817v-0.116416z"/>
   </g>
   <g aria-label="COLLEGE">
    <path d="m116.71643 58.061671c-0.24341 2.158993-1.51341 2.910407-3.01624 2.92099-1.77799-0.05292-2.98449-1.439328-2.98449-3.566572 0-2.106076 1.18533-3.513655 3.03741-3.513655 1.28058 0.01058 2.31774 0.666748 2.63524 1.894411h0.0847l-0.21167-1.492246c-0.61383-0.402165-1.46049-0.709081-2.49766-0.709081-2.32832 0-3.84174 1.545162-3.84174 3.841738 0 2.338909 1.56633 3.852321 3.77824 3.862904 1.4605 0 2.413-0.666748 2.97391-1.576911l0.127-1.661578z"/>
    <path d="m121.87048 53.584935c-2.25424 0-3.7994 1.545162-3.7994 3.852321 0 2.317743 1.54516 3.852321 3.7994 3.852321 2.25425 0 3.79941-1.534578 3.79941-3.852321 0-2.307159-1.54516-3.852321-3.79941-3.852321zm0 7.397726c-1.79916 0-2.99507-1.418162-2.99507-3.534822 0-2.127243 1.19591-3.545405 2.99507-3.545405s2.99508 1.418162 2.99508 3.545405c0 2.11666-1.19592 3.534822-2.99508 3.534822z"/>
    <path d="m131.51186 59.4375c-0.32809 0.80433-0.75142 1.386412-1.87325 1.386412h-1.52399v-6.31823c0.0106-0.359832 0.30691-0.656165 0.67733-0.656165h0.13758v-0.105833h-2.30716v0.105833h0.127c0.37042 0 0.67733 0.296333 0.67733 0.656165v5.873731c0 0.359832-0.30691 0.666748-0.67733 0.666748h-0.127v0.105833h4.38149l0.61383-1.714494z"/>
    <path d="m137.30089 59.4375c-0.32808 0.80433-0.75141 1.386412-1.87324 1.386412h-1.524v-6.31823c0.0106-0.359832 0.30692-0.656165 0.67733-0.656165h0.13759v-0.105833h-2.30716v0.105833h0.127c0.37041 0 0.67733 0.296333 0.67733 0.656165v5.873731c0 0.359832-0.30692 0.666748-0.67733 0.666748h-0.127v0.105833h4.38148l0.61383-1.714494z"/>
    <path d="m143.19576 59.4375h-0.10584c-0.32808 0.80433-0.75141 1.386412-1.87324 1.386412h-1.524v-3.17499h1.79917c0.28574 0.01058 0.50799 0.243416 0.50799 0.529165v0.148166h0.10584v-1.672161h-0.10584v0.158749c0 0.285749-0.23283 0.518582-0.51858 0.518582h-1.78858v-3.27024h2.159c0.33866 0.02117 0.59266 0.296333 0.59266 0.634998v0.179916l0.10584 0.01058v-1.344079c-0.1905 0.08467-0.80434 0.190499-1.25942 0.190499h-3.09032v0.105833h0.13758c0.34925 0 0.635 0.275166 0.66675 0.613831v5.926648c0 0.359832-0.30692 0.666748-0.67733 0.666748h-0.127v0.105833h4.38149z"/>
    <path d="m151.64122 57.701838v-0.105833h-2.07433v0.105833h0.16934c0.33866 0 0.55033 0.179917 0.55033 0.486832v1.873244c-0.61383 0.560915-1.47108 0.920747-2.39183 0.920747-1.79916-0.01058-3.00565-1.428745-3.00565-3.534822 0-2.127243 1.20649-3.545405 3.00565-3.545405 1.397 0 2.37066 0.687914 2.68816 1.894411h0.0847l-0.21167-1.492246c-0.62441-0.402165-1.39699-0.709081-2.56116-0.709081-2.25424 0-3.7994 1.534579-3.7994 3.852321 0 2.296576 1.54516 3.841738 3.7994 3.852321 1.5875 0 2.58233-0.730247 3.05858-1.365245v-1.756828c0-0.306916 0.1905-0.476249 0.52916-0.476249z"/>
    <path d="m157.2715 59.4375h-0.10583c-0.32808 0.80433-0.75141 1.386412-1.87324 1.386412h-1.524v-3.17499h1.79916c0.28575 0.01058 0.508 0.243416 0.508 0.529165v0.148166h0.10584v-1.672161h-0.10584v0.158749c0 0.285749-0.23283 0.518582-0.51858 0.518582h-1.78858v-3.27024h2.159c0.33866 0.02117 0.59266 0.296333 0.59266 0.634998v0.179916l0.10583 0.01058v-1.344079c-0.1905 0.08467-0.80433 0.190499-1.25941 0.190499h-3.09032v0.105833h0.13758c0.34925 0 0.635 0.275166 0.66675 0.613831v5.926648c0 0.359832-0.30692 0.666748-0.67733 0.666748h-0.127v0.105833h4.38148z"/>
   </g>
  </g>
  <g fill="#0adbcf">
   <path d="m146.44548-2.9109815c-1.55222 0.6702779-2.57528 1.7991668-2.57528 2.82222243 0 1.12888897 0.77611 1.44638897 2.08139 0.8819445 1.23472-0.49388892 1.905-1.65805566 1.72861-3.06916683-0.10583-1.0936112-0.10583-1.0936112-1.23472-0.6350001z"/>
   <path d="m152.28357-4.0505737c-2.44108 0.6082489-3.7171 3.44675199-1.49794 3.44675199 1.22055 0 3.77259-2.23025419 3.55067-3.09193869-0.16643-0.6082524-0.61027-0.7096266-2.05273-0.3548133z"/>
   <path d="m145.23467-8.5614094c-1.55222 0.6702778-2.57528 1.7991668-2.57528 2.8222224 0 1.128889 0.77611 1.446389 2.08139 0.8819445 1.23472-0.4938889 1.905-1.6580556 1.72861-3.0691668-0.10583-1.0936112-0.10583-1.0936112-1.23472-0.6350001z"/>
   <path d="m132.92092-13.617668c-1.02305 2.716389-0.74083 4.4097227 0.81139 5.1152783 0.77611 0.3527778 0.98778 0.2822223 1.41111-0.2822222 0.77611-1.0230556 0.635-3.0338891-0.24694-4.3744451-1.05834-1.552222-1.51695-1.658055-1.97556-0.458611z"/>
  </g>
  <path d="m129.54567-5.5824372c0 1.0583334 1.34055 2.9280557 2.11666 2.9280557 0.56445 0 0.70556-0.2469444 0.70556-1.0583334 0-0.8113889-0.24695-1.2347223-1.12889-1.763889-1.41111-0.8466667-1.69333-0.8819445-1.69333-0.1058333z" fill="#41bc3f"/>
  <path d="m149.53053 12.525616c-0.635 0.493888-0.635 0.564444-0.0706 1.128888 0.38806 0.388056 1.09361 0.635001 1.905 0.599723 1.79917-0.07056 2.15195-0.564445 0.98778-1.481667-1.09361-0.881945-1.86972-0.917222-2.82222-0.246944z" fill="#0adbcf"/>
  <path d="m128.22045-9.6665493c0 1.1994445 1.09361 2.4694446 2.11667 2.4694446 1.12889 0 0.91722-1.5522224-0.38805-2.6105558-1.37584-1.1994445-1.72862-1.1641665-1.72862 0.1411112z" fill="#0adbcf"/>
  <path d="m131.76159 10.469496c1.82477 2.075879 2.42161 4.991901 2.34297 7.662821-0.45857 3.157871-0.3768 5.298847-2.03267 6.871537-0.42339 0.402122-0.96039 0.542697-1.64906 0.917432h10.54627l-1.47274-0.893695c-2.04441-1.486795-2.40781-3.445594-2.37254-6.867539 0-2.469446 0.17639-3.35139 0.98778-5.080001 0.49389-1.164167 1.37584-2.681112 1.86973-3.3513891l0.91722-1.199445-1.48167 0.846667c-0.84667 0.458611-2.01083 1.3758331-2.57528 2.0461111l-1.05833 1.199445-1.44639-1.446389c-1.30529-1.2347231-3.31612-2.5400011-3.95112-2.5400011-0.14111 0 0.49389 0.846667 1.37583 1.8344461z" fill="#56412e"/>
 </g>
</svg>
