<!DOCTYPE svg  PUBLIC '-//W3C//DTD SVG 1.1//EN'  'http://www.w3.org/Graphics/SVG/1.1/DTD/svg11.dtd'>
<svg enable-background="new 0 0 217.762 217.762" version="1.1" viewBox="0 0 217.762 217.762" xml:space="preserve" xmlns="http://www.w3.org/2000/svg">
<path d="m108.881 5.334c-60.037 0-108.881 40.005-108.881 89.178 0 28.976 16.84 55.715 45.332 72.454-3.953 18.48-12.812 31.448-12.909 31.588l-9.685 13.873 16.798-2.153c1.935-0.249 47.001-6.222 79.122-26.942 26.378-1.92 50.877-11.597 69.181-27.364 19.296-16.623 29.923-38.448 29.923-61.455 0-49.174-48.844-89.179-108.881-89.179zm6.881 163.155-2.049 0.117-1.704 1.145c-18.679 12.548-43.685 19.509-59.416 22.913 3.3-7.377 6.768-17.184 8.499-28.506l0.809-5.292-4.741-2.485c-26.399-13.834-42.16-36.961-42.16-61.869 0-40.901 42.115-74.178 93.881-74.178s93.881 33.276 93.881 74.178c0 38.682-38.215 71.176-87 73.977z"/>















</svg>
