<!DOCTYPE svg  PUBLIC '-//W3C//DTD SVG 1.1//EN'  'http://www.w3.org/Graphics/SVG/1.1/DTD/svg11.dtd'>
<svg enable-background="new 0 0 1000 1000" version="1.1" viewBox="0 0 1e3 1e3" xml:space="preserve" xmlns="http://www.w3.org/2000/svg">

<path d="m509 2.8c-9.8 0-17.1 0.6-20.9 1.1-4-0.5-11.8-1.2-22.2-1.2-33.2 0-96.2 7.4-145.9 57.2-46.2 46.2-69.5 117.4-69.3 211.5 0.3 161.5 62.7 256.5 115 307.8 57.2 56.1 114.5 73.4 116.9 74.1 1.8 0.5 3.6 0.8 5.4 0.8 1.6 0 3.3-0.2 4.9-0.6 2.6-0.7 256.6-71.6 244.8-382.9-9.6-248.5-177.5-267.8-228.7-267.8zm-20.7 612c-32.4-11.7-198.8-84.4-199.3-343.6-0.2-83.5 19.4-145.6 58.1-184.3 39.9-40 91.5-45.9 118.7-45.9 11.7 0 19.2 1.1 19.2 1.1 1.9 0.3 3.9 0.3 5.8 0 0.1 0 7-1 18.2-1 54.6 0 182.4 22.5 190.3 230.9 9.9 259.3-176.2 331.6-211 342.8z"/><path d="M692.1,582.1c-2.7,10.2,3.5,20.7,13.7,23.4c51.4,13.5,176.8,54.3,245.8,144.8V959H48.3V750.3C116.4,661,240.1,620,290.8,606.4c10.2-2.7,16.3-13.3,13.6-23.5s-13.2-16.4-23.5-13.6c-69,18.5-195.5,64.4-267.3,163.4C11.3,736,10,739.9,10,744v234.2c0,10.6,8.6,19.2,19.2,19.2h941.7c10.6,0,19.2-8.6,19.2-19.2V744c0-4-1.3-8-3.7-11.3c-75.4-104-214.5-149.5-270.8-164.3C705.3,565.7,694.8,571.9,692.1,582.1z"/>
</svg>
