<!DOCTYPE svg  PUBLIC '-//W3C//DTD SVG 1.1//EN'  'http://www.w3.org/Graphics/SVG/1.1/DTD/svg11.dtd'>
<svg enable-background="new 0 0 1000 1000" version="1.1" viewBox="0 0 1000 1000" xml:space="preserve" xmlns="http://www.w3.org/2000/svg">

<g transform="translate(0 511) scale(.1 -.1)"><path d="m1017 4979.4c-60.4-16.1-155-54.3-211.3-84.5-130.8-70.4-348.2-285.8-418.6-418.6-124.8-231.5-116.7 44.3-116.7-4365.4 0-4407.7-8-4134 116.7-4365.4 68.4-130.8 287.8-350.2 418.6-418.6 231.5-124.8-24.2-116.7 4178.2-116.7 2717 0 3868.3 6 3944.7 22.1 261.7 54.4 557.5 275.7 684.3 513.2 122.8 229.4 116.7 14.1 116.7 3775.7 0 2900.2-4 3449.7-28.2 3504-36.2 82.5-1893.9 1936.1-1970.3 1964.3-38.3 16.1-1082.8 22.1-3330.9 20.1-2795.5 0-3290.6-4-3383.2-30.2zm1869.8-2221.9v-1650.4h4689.4v3230.2l1549.8-1549.8v-3367c0-3731.4 10.1-3453.7-128.8-3552.3-58.3-40.3-88.5-44.3-398.5-50.3l-338.1-6v4631.1h-6521v-4631l-340.1 6c-380.4 6-418.6 18.1-491.1 159-32.2 64.4-34.2 295.9-30.2 4158.1l6 4089.7 42.3 56.4c92.6 126.8 88.6 126.8 1070.7 126.8h889.6v-1650.5zm4085.6 301.9v-1348.5h-3481.8v2697h3481.8v-1348.5zm684.3-5232.9v-2012.6h-5313.3v4025.2h5313.3v-2012.6z"/><path d="m5805.1 3109.7v-795h603.8v1590h-603.8v-795z"/><path d="m3651.6-1469v-301.9h2696.8v603.8h-2696.8v-301.9z"/><path d="m3651.6-2676.6v-301.9h2696.8v603.8h-2696.8v-301.9z"/></g>
</svg>
